# xmcd
#
# Track frame offsets:
#	150
#	19785
#	39250
#	57910
#	80780
#	97115
#	115082
#	131805
#	153135
#	172182
#
# Disc length: 2622 seconds
#
# Revision: 1
# Processed by: cddbd v1.5PL3 Copyright (c) Steve Scherf et al.
# Submitted via: CDex 1.50Beta5
#
DISCID=800a3c0a
DTITLE=氷室京介 - Follow The Wind
DYEAR=2003
DGENRE=Rock
TTITLE0=Virus
TTITLE1=Weekend Shuffle
TTITLE2=Follow The Wind
TTITLE3=Monochrome Rainbow
TTITLE4=Love Shaker
TTITLE5=Claudia
TTITLE6=Fool Men's Parade
TTITLE7=Sacrifice
TTITLE8=Rap On Trap
TTITLE9=Arrows
EXTD=
EXTT0=
EXTT1=
EXTT2=
EXTT3=
EXTT4=
EXTT5=
EXTT6=
EXTT7=
EXTT8=
EXTT9=
PLAYORDER=
